<svg width="128" height="128" viewBox="0 0 128 128" xmlns="http://www.w3.org/2000/svg">
  <defs>
    <linearGradient id="bBg" x1="0" y1="0" x2="1" y2="1">
      <stop offset="0" stop-color="#161c2e"/>
      <stop offset="1" stop-color="#0b0d15"/>
    </linearGradient>
    <linearGradient id="bS" x1="0" y1="0" x2="1" y2="1">
      <stop offset="0" stop-color="#ffc24b"/>
      <stop offset="0.5" stop-color="#ff4d8d"/>
      <stop offset="1" stop-color="#37d0ff"/>
    </linearGradient>
    <linearGradient id="bRay" x1="0" y1="1" x2="0" y2="0">
      <stop offset="0" stop-color="#ffd27a" stop-opacity="0.5"/>
      <stop offset="1" stop-color="#ffd27a" stop-opacity="0"/>
    </linearGradient>
  </defs>
  <rect x="4" y="4" width="120" height="120" rx="28" fill="url(#bBg)"/>
  <polygon points="62,40 68,40 84,10 72,10" fill="url(#bRay)"/>
  <polygon points="56,42 60,42 40,10 30,10" fill="url(#bRay)"/>
  <path d="M86 46 c0 -15 -20 -22 -35 -13 c-15 9 -13 28 7 35 c20 7 22 26 4 36 c-15 8 -37 3 -41 -12"
        fill="none" stroke="url(#bS)" stroke-width="14" stroke-linecap="round"/>
</svg>
